<?xml version="1.0" encoding="UTF-8" standalone="no"?>
<!DOCTYPE svg PUBLIC "-//W3C//DTD SVG 1.1//EN"
 "http://www.w3.org/Graphics/SVG/1.1/DTD/svg11.dtd">
<!-- Generated by graphviz version 2.49.3 (20211023.0002)
 -->
<!-- Pages: 1 -->
<svg width="553pt" height="1572pt"
 viewBox="0.00 0.00 553.00 1572.45" xmlns="http://www.w3.org/2000/svg" xmlns:xlink="http://www.w3.org/1999/xlink">
<g id="graph0" class="graph" transform="scale(1 1) rotate(0) translate(4 1568.45)">
<polygon fill="white" stroke="transparent" points="-4,4 -4,-1568.45 549,-1568.45 549,4 -4,4"/>
<!-- &#45;5306809037834110387 -->
<g id="node1" class="node">
<title>&#45;5306809037834110387</title>
<polygon fill="#e8e8ff" stroke="black" points="435,-1451.81 381,-1451.81 381,-1415.81 435,-1415.81 435,-1451.81"/>
<text text-anchor="middle" x="408" y="-1430.71" font-family="Times New Roman,serif" font-size="12.00">A1 (3)</text>
</g>
<!-- &#45;966049250976515978 -->
<g id="node12" class="node">
<title>&#45;966049250976515978</title>
<polygon fill="#e8e8ff" stroke="black" points="305,-1366.81 251,-1366.81 251,-1330.81 305,-1330.81 305,-1366.81"/>
<text text-anchor="middle" x="278" y="-1345.71" font-family="Times New Roman,serif" font-size="12.00">A2 (3)</text>
</g>
<!-- &#45;5306809037834110387&#45;&gt;&#45;966049250976515978 -->
<g id="edge1" class="edge">
<title>&#45;5306809037834110387&#45;&gt;&#45;966049250976515978</title>
<path fill="none" stroke="black" stroke-width="1.53" d="M381.06,-1415.61C361.45,-1403.09 334.71,-1386.02 313.38,-1372.4"/>
<polygon fill="black" stroke="black" stroke-width="1.53" points="315.21,-1369.42 304.9,-1366.99 311.45,-1375.32 315.21,-1369.42"/>
<text text-anchor="middle" x="353.5" y="-1388.21" font-family="Times New Roman,serif" font-size="12.00">3</text>
</g>
<!-- 5813302314145293240 -->
<g id="node2" class="node">
<title>5813302314145293240</title>
<polygon fill="#c7c7ff" stroke="black" points="300,-833.81 246,-833.81 246,-797.81 300,-797.81 300,-833.81"/>
<text text-anchor="middle" x="273" y="-812.71" font-family="Times New Roman,serif" font-size="12.00">A10 (6)</text>
</g>
<!-- 5810947811007806958 -->
<g id="node6" class="node">
<title>5810947811007806958</title>
<polygon fill="#ddddff" stroke="black" points="302,-748.81 248,-748.81 248,-712.81 302,-712.81 302,-748.81"/>
<text text-anchor="middle" x="275" y="-727.71" font-family="Times New Roman,serif" font-size="12.00">A14 (4)</text>
</g>
<!-- 5813302314145293240&#45;&gt;5810947811007806958 -->
<g id="edge2" class="edge">
<title>5813302314145293240&#45;&gt;5810947811007806958</title>
<path fill="none" stroke="black" stroke-width="1.27" d="M267.54,-797.51C265.32,-788.4 263.57,-777.02 265,-766.81 265.36,-764.24 265.86,-761.59 266.45,-758.95"/>
<polygon fill="black" stroke="black" stroke-width="1.27" points="269.9,-759.61 269.04,-749.05 263.13,-757.84 269.9,-759.61"/>
<text text-anchor="middle" x="268.5" y="-770.21" font-family="Times New Roman,serif" font-size="12.00">2</text>
</g>
<!-- @@endnode -->
<g id="node26" class="node">
<title>@@endnode</title>
<ellipse fill="none" stroke="black" cx="332" cy="-34.41" rx="30.32" ry="30.32"/>
<ellipse fill="none" stroke="black" cx="332" cy="-34.41" rx="34.31" ry="34.31"/>
<text text-anchor="start" x="322" y="-26.31" font-family="Times New Roman,serif" font-size="32.00">â– </text>
</g>
<!-- 5813302314145293240&#45;&gt;@@endnode -->
<g id="edge42" class="edge">
<title>5813302314145293240&#45;&gt;@@endnode</title>
<path fill="none" stroke="black" d="M297.41,-797.63C322.84,-778.82 359,-749.03 359,-731.81 359,-731.81 359,-731.81 359,-134.81 359,-115.04 353.97,-93.82 348.25,-76.07"/>
<polygon fill="black" stroke="black" points="351.56,-74.94 345.03,-66.61 344.93,-77.2 351.56,-74.94"/>
<text text-anchor="middle" x="362.5" y="-430.21" font-family="Times New Roman,serif" font-size="12.00">4</text>
</g>
<!-- &#45;6625102292828085983 -->
<g id="node3" class="node">
<title>&#45;6625102292828085983</title>
<polygon fill="#ddddff" stroke="black" points="166,-493.81 112,-493.81 112,-457.81 166,-457.81 166,-493.81"/>
<text text-anchor="middle" x="139" y="-472.71" font-family="Times New Roman,serif" font-size="12.00">A11 (4)</text>
</g>
<!-- &#45;4414752441361253649 -->
<g id="node19" class="node">
<title>&#45;4414752441361253649</title>
<polygon fill="#b1b1ff" stroke="black" points="166,-408.81 112,-408.81 112,-372.81 166,-372.81 166,-408.81"/>
<text text-anchor="middle" x="139" y="-387.71" font-family="Times New Roman,serif" font-size="12.00">A4 (8)</text>
</g>
<!-- &#45;6625102292828085983&#45;&gt;&#45;4414752441361253649 -->
<g id="edge3" class="edge">
<title>&#45;6625102292828085983&#45;&gt;&#45;4414752441361253649</title>
<path fill="none" stroke="black" d="M129.21,-457.7C125.16,-448.64 121.86,-437.25 124,-426.81 124.55,-424.11 125.33,-421.36 126.23,-418.65"/>
<polygon fill="black" stroke="black" points="129.56,-419.75 129.92,-409.16 123.03,-417.21 129.56,-419.75"/>
<text text-anchor="middle" x="127.5" y="-430.21" font-family="Times New Roman,serif" font-size="12.00">1</text>
</g>
<!-- &#45;3229729450545265146 -->
<g id="node20" class="node">
<title>&#45;3229729450545265146</title>
<polygon fill="#9b9bff" stroke="black" points="246,-323.81 192,-323.81 192,-287.81 246,-287.81 246,-323.81"/>
<text text-anchor="middle" x="219" y="-302.71" font-family="Times New Roman,serif" font-size="12.00">A5 (10)</text>
</g>
<!-- &#45;6625102292828085983&#45;&gt;&#45;3229729450545265146 -->
<g id="edge4" class="edge">
<title>&#45;6625102292828085983&#45;&gt;&#45;3229729450545265146</title>
<path fill="none" stroke="black" stroke-width="1.53" d="M148.92,-457.67C156.41,-444.48 166.77,-425.71 175,-408.81 187.27,-383.63 199.78,-354.19 208.31,-333.43"/>
<polygon fill="black" stroke="black" stroke-width="1.53" points="211.62,-334.57 212.15,-323.99 205.14,-331.93 211.62,-334.57"/>
<text text-anchor="middle" x="194.5" y="-387.71" font-family="Times New Roman,serif" font-size="12.00">3</text>
</g>
<!-- 4352240974791338677 -->
<g id="node4" class="node">
<title>4352240974791338677</title>
<polygon fill="#d2d2ff" stroke="black" points="331,-238.81 277,-238.81 277,-202.81 331,-202.81 331,-238.81"/>
<text text-anchor="middle" x="304" y="-217.71" font-family="Times New Roman,serif" font-size="12.00">A12 (5)</text>
</g>
<!-- &#45;2679433760919361491 -->
<g id="node5" class="node">
<title>&#45;2679433760919361491</title>
<polygon fill="#d2d2ff" stroke="black" points="331,-153.81 277,-153.81 277,-117.81 331,-117.81 331,-153.81"/>
<text text-anchor="middle" x="304" y="-132.71" font-family="Times New Roman,serif" font-size="12.00">A13 (5)</text>
</g>
<!-- 4352240974791338677&#45;&gt;&#45;2679433760919361491 -->
<g id="edge5" class="edge">
<title>4352240974791338677&#45;&gt;&#45;2679433760919361491</title>
<path fill="none" stroke="black" stroke-width="2.07" d="M304,-202.61C304,-191.48 304,-176.76 304,-164.06"/>
<polygon fill="black" stroke="black" stroke-width="2.07" points="307.5,-163.99 304,-153.99 300.5,-163.99 307.5,-163.99"/>
<text text-anchor="middle" x="307.5" y="-175.21" font-family="Times New Roman,serif" font-size="12.00">5</text>
</g>
<!-- &#45;2038845638454328295 -->
<g id="node18" class="node">
<title>&#45;2038845638454328295</title>
<polygon fill="#9b9bff" stroke="black" points="207,-578.81 153,-578.81 153,-542.81 207,-542.81 207,-578.81"/>
<text text-anchor="middle" x="180" y="-557.71" font-family="Times New Roman,serif" font-size="12.00">A3 (10)</text>
</g>
<!-- &#45;2679433760919361491&#45;&gt;&#45;2038845638454328295 -->
<g id="edge6" class="edge">
<title>&#45;2679433760919361491&#45;&gt;&#45;2038845638454328295</title>
<path fill="none" stroke="black" stroke-width="1.8" d="M276.58,-141.2C217.61,-151.43 84,-179.09 84,-219.81 84,-476.81 84,-476.81 84,-476.81 84,-509.53 116.3,-532.22 143.43,-545.5"/>
<polygon fill="black" stroke="black" stroke-width="1.8" points="142.2,-548.79 152.75,-549.81 145.14,-542.44 142.2,-548.79"/>
<text text-anchor="middle" x="87.5" y="-345.21" font-family="Times New Roman,serif" font-size="12.00">4</text>
</g>
<!-- &#45;2679433760919361491&#45;&gt;@@endnode -->
<g id="edge43" class="edge">
<title>&#45;2679433760919361491&#45;&gt;@@endnode</title>
<path fill="none" stroke="black" d="M308.88,-117.5C311.98,-106.48 316.14,-91.72 320.07,-77.74"/>
<polygon fill="black" stroke="black" points="323.54,-78.35 322.88,-67.77 316.8,-76.45 323.54,-78.35"/>
<text text-anchor="middle" x="320.5" y="-90.21" font-family="Times New Roman,serif" font-size="12.00">1</text>
</g>
<!-- 5810947811007806958&#45;&gt;5813302314145293240 -->
<g id="edge7" class="edge">
<title>5810947811007806958&#45;&gt;5813302314145293240</title>
<path fill="none" stroke="black" d="M274.59,-748.99C274.32,-760.11 273.96,-774.84 273.66,-787.54"/>
<polygon fill="black" stroke="black" points="270.16,-787.53 273.41,-797.61 277.15,-787.7 270.16,-787.53"/>
<text text-anchor="middle" x="277.5" y="-770.21" font-family="Times New Roman,serif" font-size="12.00">1</text>
</g>
<!-- 5810947811007806958&#45;&gt;4352240974791338677 -->
<g id="edge8" class="edge">
<title>5810947811007806958&#45;&gt;4352240974791338677</title>
<path fill="none" stroke="black" d="M291.35,-712.56C304.57,-696.74 321,-672.02 321,-646.81 321,-646.81 321,-646.81 321,-304.81 321,-285.87 316.7,-264.98 312.42,-248.89"/>
<polygon fill="black" stroke="black" points="315.74,-247.77 309.66,-239.09 309,-249.66 315.74,-247.77"/>
<text text-anchor="middle" x="324.5" y="-472.71" font-family="Times New Roman,serif" font-size="12.00">1</text>
</g>
<!-- &#45;5868589170284297413 -->
<g id="node9" class="node">
<title>&#45;5868589170284297413</title>
<polygon fill="#ffffff" stroke="black" points="227,-663.81 173,-663.81 173,-627.81 227,-627.81 227,-663.81"/>
<text text-anchor="middle" x="200" y="-642.71" font-family="Times New Roman,serif" font-size="12.00">A17 (1)</text>
</g>
<!-- 5810947811007806958&#45;&gt;&#45;5868589170284297413 -->
<g id="edge9" class="edge">
<title>5810947811007806958&#45;&gt;&#45;5868589170284297413</title>
<path fill="none" stroke="black" d="M259.46,-712.61C248.7,-700.71 234.22,-684.68 222.24,-671.42"/>
<polygon fill="black" stroke="black" points="224.82,-669.06 215.52,-663.99 219.63,-673.75 224.82,-669.06"/>
<text text-anchor="middle" x="244.5" y="-685.21" font-family="Times New Roman,serif" font-size="12.00">1</text>
</g>
<!-- &#45;4131085018467797151 -->
<g id="node21" class="node">
<title>&#45;4131085018467797151</title>
<polygon fill="#b1b1ff" stroke="black" points="305,-1173.81 251,-1173.81 251,-1137.81 305,-1137.81 305,-1173.81"/>
<text text-anchor="middle" x="278" y="-1152.71" font-family="Times New Roman,serif" font-size="12.00">A6 (8)</text>
</g>
<!-- 5810947811007806958&#45;&gt;&#45;4131085018467797151 -->
<g id="edge10" class="edge">
<title>5810947811007806958&#45;&gt;&#45;4131085018467797151</title>
<path fill="none" stroke="black" d="M254.1,-748.92C237.83,-764.28 218,-788.42 218,-814.81 218,-1071.81 218,-1071.81 218,-1071.81 218,-1094.73 233.21,-1115.61 248.32,-1130.7"/>
<polygon fill="black" stroke="black" points="245.98,-1133.31 255.66,-1137.62 250.79,-1128.22 245.98,-1133.31"/>
<text text-anchor="middle" x="221.5" y="-940.21" font-family="Times New Roman,serif" font-size="12.00">1</text>
</g>
<!-- &#45;8277026589847331252 -->
<g id="node7" class="node">
<title>&#45;8277026589847331252</title>
<polygon fill="#f3f3ff" stroke="black" points="529,-1451.81 475,-1451.81 475,-1415.81 529,-1415.81 529,-1451.81"/>
<text text-anchor="middle" x="502" y="-1430.71" font-family="Times New Roman,serif" font-size="12.00">A15 (2)</text>
</g>
<!-- &#45;7104934965464188881 -->
<g id="node8" class="node">
<title>&#45;7104934965464188881</title>
<polygon fill="#f3f3ff" stroke="black" points="545,-1312.81 491,-1312.81 491,-1276.81 545,-1276.81 545,-1312.81"/>
<text text-anchor="middle" x="518" y="-1291.71" font-family="Times New Roman,serif" font-size="12.00">A16 (2)</text>
</g>
<!-- &#45;8277026589847331252&#45;&gt;&#45;7104934965464188881 -->
<g id="edge11" class="edge">
<title>&#45;8277026589847331252&#45;&gt;&#45;7104934965464188881</title>
<path fill="none" stroke="black" stroke-width="1.27" d="M503.99,-1415.74C506.7,-1392.56 511.57,-1350.88 514.79,-1323.27"/>
<polygon fill="black" stroke="black" stroke-width="1.27" points="518.3,-1323.44 515.98,-1313.1 511.34,-1322.63 518.3,-1323.44"/>
<text text-anchor="middle" x="510.5" y="-1388.21" font-family="Times New Roman,serif" font-size="12.00">2</text>
</g>
<!-- &#45;6468260299930268202 -->
<g id="node24" class="node">
<title>&#45;6468260299930268202</title>
<polygon fill="#9b9bff" stroke="black" points="392,-918.81 338,-918.81 338,-882.81 392,-882.81 392,-918.81"/>
<text text-anchor="middle" x="365" y="-897.71" font-family="Times New Roman,serif" font-size="12.00">A9 (10)</text>
</g>
<!-- &#45;7104934965464188881&#45;&gt;&#45;6468260299930268202 -->
<g id="edge12" class="edge">
<title>&#45;7104934965464188881&#45;&gt;&#45;6468260299930268202</title>
<path fill="none" stroke="black" stroke-width="1.27" d="M518.29,-1276.74C518.58,-1257.81 519,-1226.38 519,-1199.31 519,-1199.31 519,-1199.31 519,-984.81 519,-931.98 447.9,-912.62 402.32,-905.64"/>
<polygon fill="black" stroke="black" stroke-width="1.27" points="402.57,-902.14 392.18,-904.23 401.6,-909.08 402.57,-902.14"/>
<text text-anchor="middle" x="522.5" y="-1110.21" font-family="Times New Roman,serif" font-size="12.00">2</text>
</g>
<!-- &#45;5868589170284297413&#45;&gt;&#45;2038845638454328295 -->
<g id="edge13" class="edge">
<title>&#45;5868589170284297413&#45;&gt;&#45;2038845638454328295</title>
<path fill="none" stroke="black" d="M195.86,-627.61C193.17,-616.48 189.63,-601.76 186.56,-589.06"/>
<polygon fill="black" stroke="black" points="189.88,-587.89 184.14,-578.99 183.08,-589.53 189.88,-587.89"/>
<text text-anchor="middle" x="194.5" y="-600.21" font-family="Times New Roman,serif" font-size="12.00">1</text>
</g>
<!-- &#45;7941921443047307994 -->
<g id="node10" class="node">
<title>&#45;7941921443047307994</title>
<polygon fill="#f3f3ff" stroke="black" points="447,-1088.81 393,-1088.81 393,-1052.81 447,-1052.81 447,-1088.81"/>
<text text-anchor="middle" x="420" y="-1067.71" font-family="Times New Roman,serif" font-size="12.00">A18 (2)</text>
</g>
<!-- 2904509999088521418 -->
<g id="node11" class="node">
<title>2904509999088521418</title>
<polygon fill="#f3f3ff" stroke="black" points="447,-1003.81 393,-1003.81 393,-967.81 447,-967.81 447,-1003.81"/>
<text text-anchor="middle" x="420" y="-982.71" font-family="Times New Roman,serif" font-size="12.00">A19 (2)</text>
</g>
<!-- &#45;7941921443047307994&#45;&gt;2904509999088521418 -->
<g id="edge14" class="edge">
<title>&#45;7941921443047307994&#45;&gt;2904509999088521418</title>
<path fill="none" stroke="black" stroke-width="1.27" d="M420,-1052.61C420,-1041.48 420,-1026.76 420,-1014.06"/>
<polygon fill="black" stroke="black" stroke-width="1.27" points="423.5,-1013.99 420,-1003.99 416.5,-1013.99 423.5,-1013.99"/>
<text text-anchor="middle" x="423.5" y="-1025.21" font-family="Times New Roman,serif" font-size="12.00">2</text>
</g>
<!-- 2904509999088521418&#45;&gt;&#45;6468260299930268202 -->
<g id="edge15" class="edge">
<title>2904509999088521418&#45;&gt;&#45;6468260299930268202</title>
<path fill="none" stroke="black" stroke-width="1.27" d="M408.6,-967.61C400.93,-956.04 390.68,-940.57 382.05,-927.54"/>
<polygon fill="black" stroke="black" stroke-width="1.27" points="384.82,-925.39 376.38,-918.99 378.99,-929.26 384.82,-925.39"/>
<text text-anchor="middle" x="398.5" y="-940.21" font-family="Times New Roman,serif" font-size="12.00">2</text>
</g>
<!-- 6856363235003020209 -->
<g id="node17" class="node">
<title>6856363235003020209</title>
<polygon fill="#ffffff" stroke="black" points="305,-1258.81 251,-1258.81 251,-1222.81 305,-1222.81 305,-1258.81"/>
<text text-anchor="middle" x="278" y="-1237.71" font-family="Times New Roman,serif" font-size="12.00">A24 (1)</text>
</g>
<!-- &#45;966049250976515978&#45;&gt;6856363235003020209 -->
<g id="edge16" class="edge">
<title>&#45;966049250976515978&#45;&gt;6856363235003020209</title>
<path fill="none" stroke="black" d="M278,-1330.78C278,-1314.19 278,-1288.69 278,-1269.24"/>
<polygon fill="black" stroke="black" points="281.5,-1269.15 278,-1259.15 274.5,-1269.15 281.5,-1269.15"/>
<text text-anchor="middle" x="281.5" y="-1291.71" font-family="Times New Roman,serif" font-size="12.00">1</text>
</g>
<!-- &#45;966049250976515978&#45;&gt;&#45;2038845638454328295 -->
<g id="edge17" class="edge">
<title>&#45;966049250976515978&#45;&gt;&#45;2038845638454328295</title>
<path fill="none" stroke="black" stroke-width="1.27" d="M250.84,-1343.44C180.89,-1331.41 0,-1295.14 0,-1241.81 0,-1241.81 0,-1241.81 0,-644.81 0,-582.55 89.92,-566.84 142.65,-562.97"/>
<polygon fill="black" stroke="black" stroke-width="1.27" points="142.9,-566.47 152.66,-562.35 142.46,-559.48 142.9,-566.47"/>
<text text-anchor="middle" x="3.5" y="-940.21" font-family="Times New Roman,serif" font-size="12.00">2</text>
</g>
<!-- &#45;7002965031765832216 -->
<g id="node13" class="node">
<title>&#45;7002965031765832216</title>
<polygon fill="#ffffff" stroke="black" points="453,-833.81 399,-833.81 399,-797.81 453,-797.81 453,-833.81"/>
<text text-anchor="middle" x="426" y="-812.71" font-family="Times New Roman,serif" font-size="12.00">A20 (1)</text>
</g>
<!-- 829944484269931281 -->
<g id="node14" class="node">
<title>829944484269931281</title>
<polygon fill="#ffffff" stroke="black" points="494,-748.81 440,-748.81 440,-712.81 494,-712.81 494,-748.81"/>
<text text-anchor="middle" x="467" y="-727.71" font-family="Times New Roman,serif" font-size="12.00">A21 (1)</text>
</g>
<!-- &#45;7002965031765832216&#45;&gt;829944484269931281 -->
<g id="edge18" class="edge">
<title>&#45;7002965031765832216&#45;&gt;829944484269931281</title>
<path fill="none" stroke="black" d="M434.5,-797.61C440.1,-786.26 447.56,-771.17 453.92,-758.3"/>
<polygon fill="black" stroke="black" points="457.22,-759.5 458.52,-748.99 450.95,-756.4 457.22,-759.5"/>
<text text-anchor="middle" x="451.5" y="-770.21" font-family="Times New Roman,serif" font-size="12.00">1</text>
</g>
<!-- 829944484269931281&#45;&gt;&#45;4131085018467797151 -->
<g id="edge19" class="edge">
<title>829944484269931281&#45;&gt;&#45;4131085018467797151</title>
<path fill="none" stroke="black" d="M471.58,-748.84C475.67,-765.52 481,-791.72 481,-814.81 481,-1071.81 481,-1071.81 481,-1071.81 481,-1142.57 374.02,-1154.34 315.38,-1155.47"/>
<polygon fill="black" stroke="black" points="315.34,-1151.97 305.38,-1155.57 315.41,-1158.97 315.34,-1151.97"/>
<text text-anchor="middle" x="484.5" y="-940.21" font-family="Times New Roman,serif" font-size="12.00">1</text>
</g>
<!-- &#45;4037235332265015970 -->
<g id="node15" class="node">
<title>&#45;4037235332265015970</title>
<polygon fill="#ffffff" stroke="black" points="303,-1088.81 249,-1088.81 249,-1052.81 303,-1052.81 303,-1088.81"/>
<text text-anchor="middle" x="276" y="-1067.71" font-family="Times New Roman,serif" font-size="12.00">A22 (1)</text>
</g>
<!-- &#45;8855722381939393349 -->
<g id="node16" class="node">
<title>&#45;8855722381939393349</title>
<polygon fill="#ffffff" stroke="black" points="303,-1003.81 249,-1003.81 249,-967.81 303,-967.81 303,-1003.81"/>
<text text-anchor="middle" x="276" y="-982.71" font-family="Times New Roman,serif" font-size="12.00">A23 (1)</text>
</g>
<!-- &#45;4037235332265015970&#45;&gt;&#45;8855722381939393349 -->
<g id="edge20" class="edge">
<title>&#45;4037235332265015970&#45;&gt;&#45;8855722381939393349</title>
<path fill="none" stroke="black" d="M276,-1052.61C276,-1041.48 276,-1026.76 276,-1014.06"/>
<polygon fill="black" stroke="black" points="279.5,-1013.99 276,-1003.99 272.5,-1013.99 279.5,-1013.99"/>
<text text-anchor="middle" x="279.5" y="-1025.21" font-family="Times New Roman,serif" font-size="12.00">1</text>
</g>
<!-- &#45;8855722381939393349&#45;&gt;&#45;6468260299930268202 -->
<g id="edge21" class="edge">
<title>&#45;8855722381939393349&#45;&gt;&#45;6468260299930268202</title>
<path fill="none" stroke="black" d="M294.44,-967.61C307.33,-955.59 324.72,-939.38 339.01,-926.05"/>
<polygon fill="black" stroke="black" points="341.66,-928.37 346.58,-918.99 336.88,-923.25 341.66,-928.37"/>
<text text-anchor="middle" x="328.5" y="-940.21" font-family="Times New Roman,serif" font-size="12.00">1</text>
</g>
<!-- 6856363235003020209&#45;&gt;&#45;4131085018467797151 -->
<g id="edge22" class="edge">
<title>6856363235003020209&#45;&gt;&#45;4131085018467797151</title>
<path fill="none" stroke="black" d="M278,-1222.61C278,-1211.48 278,-1196.76 278,-1184.06"/>
<polygon fill="black" stroke="black" points="281.5,-1183.99 278,-1173.99 274.5,-1183.99 281.5,-1183.99"/>
<text text-anchor="middle" x="281.5" y="-1195.21" font-family="Times New Roman,serif" font-size="12.00">1</text>
</g>
<!-- &#45;2038845638454328295&#45;&gt;&#45;6625102292828085983 -->
<g id="edge23" class="edge">
<title>&#45;2038845638454328295&#45;&gt;&#45;6625102292828085983</title>
<path fill="none" stroke="black" stroke-width="1.53" d="M171.5,-542.61C165.9,-531.26 158.44,-516.17 152.08,-503.3"/>
<polygon fill="black" stroke="black" stroke-width="1.53" points="155.05,-501.4 147.48,-493.99 148.78,-504.5 155.05,-501.4"/>
<text text-anchor="middle" x="164.5" y="-515.21" font-family="Times New Roman,serif" font-size="12.00">3</text>
</g>
<!-- &#45;2038845638454328295&#45;&gt;&#45;4414752441361253649 -->
<g id="edge24" class="edge">
<title>&#45;2038845638454328295&#45;&gt;&#45;4414752441361253649</title>
<path fill="none" stroke="black" stroke-width="2.6" d="M181.47,-542.47C182.69,-521.87 183.11,-486.66 175,-457.81 171.07,-443.83 163.75,-429.54 156.74,-417.84"/>
<polygon fill="black" stroke="black" stroke-width="2.6" points="159.52,-415.69 151.25,-409.08 153.59,-419.41 159.52,-415.69"/>
<text text-anchor="middle" x="184.5" y="-472.71" font-family="Times New Roman,serif" font-size="12.00">7</text>
</g>
<!-- &#45;4414752441361253649&#45;&gt;&#45;6625102292828085983 -->
<g id="edge25" class="edge">
<title>&#45;4414752441361253649&#45;&gt;&#45;6625102292828085983</title>
<path fill="none" stroke="black" d="M139,-408.99C139,-420.11 139,-434.84 139,-447.54"/>
<polygon fill="black" stroke="black" points="135.5,-447.61 139,-457.61 142.5,-447.61 135.5,-447.61"/>
<text text-anchor="middle" x="142.5" y="-430.21" font-family="Times New Roman,serif" font-size="12.00">1</text>
</g>
<!-- &#45;4414752441361253649&#45;&gt;&#45;3229729450545265146 -->
<g id="edge26" class="edge">
<title>&#45;4414752441361253649&#45;&gt;&#45;3229729450545265146</title>
<path fill="none" stroke="black" stroke-width="2.6" d="M153.34,-372.53C161.26,-363.21 171.42,-351.64 181,-341.81 184.59,-338.13 188.47,-334.35 192.34,-330.69"/>
<polygon fill="black" stroke="black" stroke-width="2.6" points="194.74,-333.24 199.68,-323.87 189.97,-328.11 194.74,-333.24"/>
<text text-anchor="middle" x="184.5" y="-345.21" font-family="Times New Roman,serif" font-size="12.00">7</text>
</g>
<!-- &#45;3229729450545265146&#45;&gt;4352240974791338677 -->
<g id="edge27" class="edge">
<title>&#45;3229729450545265146&#45;&gt;4352240974791338677</title>
<path fill="none" stroke="black" d="M236.61,-287.61C248.92,-275.59 265.53,-259.38 279.18,-246.05"/>
<polygon fill="black" stroke="black" points="281.7,-248.48 286.41,-238.99 276.81,-243.47 281.7,-248.48"/>
<text text-anchor="middle" x="269.5" y="-260.21" font-family="Times New Roman,serif" font-size="12.00">1</text>
</g>
<!-- &#45;3229729450545265146&#45;&gt;5810947811007806958 -->
<g id="edge28" class="edge">
<title>&#45;3229729450545265146&#45;&gt;5810947811007806958</title>
<path fill="none" stroke="black" d="M239.53,-324C255.52,-339.4 275,-363.56 275,-389.81 275,-646.81 275,-646.81 275,-646.81 275,-665.31 275,-686.13 275,-702.29"/>
<polygon fill="black" stroke="black" points="271.5,-702.64 275,-712.64 278.5,-702.64 271.5,-702.64"/>
<text text-anchor="middle" x="278.5" y="-515.21" font-family="Times New Roman,serif" font-size="12.00">1</text>
</g>
<!-- &#45;3229729450545265146&#45;&gt;&#45;2038845638454328295 -->
<g id="edge29" class="edge">
<title>&#45;3229729450545265146&#45;&gt;&#45;2038845638454328295</title>
<path fill="none" stroke="black" stroke-width="1.53" d="M218.15,-324.16C217.64,-333.29 216.91,-344.67 216,-354.81 209.18,-430.58 216.51,-451.55 196,-524.81 195.21,-527.65 194.21,-530.54 193.11,-533.39"/>
<polygon fill="black" stroke="black" stroke-width="1.53" points="189.81,-532.2 189.08,-542.77 196.24,-534.96 189.81,-532.2"/>
<text text-anchor="middle" x="214.5" y="-430.21" font-family="Times New Roman,serif" font-size="12.00">3</text>
</g>
<!-- &#45;3229729450545265146&#45;&gt;&#45;4131085018467797151 -->
<g id="edge30" class="edge">
<title>&#45;3229729450545265146&#45;&gt;&#45;4131085018467797151</title>
<path fill="none" stroke="black" stroke-width="2.07" d="M191.96,-309.63C152.26,-314.28 80.87,-324.78 62,-341.81 45.31,-356.88 46,-367.32 46,-389.81 46,-1071.81 46,-1071.81 46,-1071.81 46,-1112.72 175.51,-1138.83 241,-1149.42"/>
<polygon fill="black" stroke="black" stroke-width="2.07" points="240.51,-1152.89 250.93,-1150.99 241.6,-1145.97 240.51,-1152.89"/>
<text text-anchor="middle" x="49.5" y="-727.71" font-family="Times New Roman,serif" font-size="12.00">5</text>
</g>
<!-- &#45;4131085018467797151&#45;&gt;&#45;7941921443047307994 -->
<g id="edge31" class="edge">
<title>&#45;4131085018467797151&#45;&gt;&#45;7941921443047307994</title>
<path fill="none" stroke="black" stroke-width="1.27" d="M305.04,-1139C327.4,-1125.93 359.35,-1107.26 383.9,-1092.91"/>
<polygon fill="black" stroke="black" stroke-width="1.27" points="385.71,-1095.91 392.57,-1087.84 382.17,-1089.87 385.71,-1095.91"/>
<text text-anchor="middle" x="360.5" y="-1110.21" font-family="Times New Roman,serif" font-size="12.00">2</text>
</g>
<!-- &#45;4131085018467797151&#45;&gt;&#45;4037235332265015970 -->
<g id="edge32" class="edge">
<title>&#45;4131085018467797151&#45;&gt;&#45;4037235332265015970</title>
<path fill="none" stroke="black" d="M277.59,-1137.61C277.32,-1126.48 276.96,-1111.76 276.66,-1099.06"/>
<polygon fill="black" stroke="black" points="280.15,-1098.9 276.41,-1088.99 273.16,-1099.07 280.15,-1098.9"/>
<text text-anchor="middle" x="280.5" y="-1110.21" font-family="Times New Roman,serif" font-size="12.00">1</text>
</g>
<!-- 7691428139006354529 -->
<g id="node22" class="node">
<title>7691428139006354529</title>
<polygon fill="#d2d2ff" stroke="black" points="375,-1088.81 321,-1088.81 321,-1052.81 375,-1052.81 375,-1088.81"/>
<text text-anchor="middle" x="348" y="-1067.71" font-family="Times New Roman,serif" font-size="12.00">A7 (5)</text>
</g>
<!-- &#45;4131085018467797151&#45;&gt;7691428139006354529 -->
<g id="edge33" class="edge">
<title>&#45;4131085018467797151&#45;&gt;7691428139006354529</title>
<path fill="none" stroke="black" stroke-width="2.07" d="M292.5,-1137.61C302.45,-1125.82 315.81,-1109.98 326.93,-1096.79"/>
<polygon fill="black" stroke="black" stroke-width="2.07" points="329.74,-1098.89 333.51,-1088.99 324.39,-1094.37 329.74,-1098.89"/>
<text text-anchor="middle" x="320.5" y="-1110.21" font-family="Times New Roman,serif" font-size="12.00">5</text>
</g>
<!-- 1009004353942981822 -->
<g id="node23" class="node">
<title>1009004353942981822</title>
<polygon fill="#d2d2ff" stroke="black" points="375,-1003.81 321,-1003.81 321,-967.81 375,-967.81 375,-1003.81"/>
<text text-anchor="middle" x="348" y="-982.71" font-family="Times New Roman,serif" font-size="12.00">A8 (5)</text>
</g>
<!-- 7691428139006354529&#45;&gt;1009004353942981822 -->
<g id="edge34" class="edge">
<title>7691428139006354529&#45;&gt;1009004353942981822</title>
<path fill="none" stroke="black" stroke-width="2.07" d="M348,-1052.61C348,-1041.48 348,-1026.76 348,-1014.06"/>
<polygon fill="black" stroke="black" stroke-width="2.07" points="351.5,-1013.99 348,-1003.99 344.5,-1013.99 351.5,-1013.99"/>
<text text-anchor="middle" x="351.5" y="-1025.21" font-family="Times New Roman,serif" font-size="12.00">5</text>
</g>
<!-- 1009004353942981822&#45;&gt;&#45;6468260299930268202 -->
<g id="edge35" class="edge">
<title>1009004353942981822&#45;&gt;&#45;6468260299930268202</title>
<path fill="none" stroke="black" stroke-width="2.07" d="M351.52,-967.61C353.8,-956.48 356.82,-941.76 359.42,-929.06"/>
<polygon fill="black" stroke="black" stroke-width="2.07" points="362.9,-929.49 361.48,-918.99 356.05,-928.08 362.9,-929.49"/>
<text text-anchor="middle" x="360.5" y="-940.21" font-family="Times New Roman,serif" font-size="12.00">5</text>
</g>
<!-- &#45;6468260299930268202&#45;&gt;5813302314145293240 -->
<g id="edge36" class="edge">
<title>&#45;6468260299930268202&#45;&gt;5813302314145293240</title>
<path fill="none" stroke="black" stroke-width="2.07" d="M338.15,-882.78C330.38,-877.4 322.1,-871.18 315,-864.81 307.37,-857.97 299.77,-849.8 293.18,-842.16"/>
<polygon fill="black" stroke="black" stroke-width="2.07" points="295.57,-839.57 286.46,-834.16 290.21,-844.07 295.57,-839.57"/>
<text text-anchor="middle" x="318.5" y="-855.21" font-family="Times New Roman,serif" font-size="12.00">5</text>
</g>
<!-- &#45;6468260299930268202&#45;&gt;4352240974791338677 -->
<g id="edge37" class="edge">
<title>&#45;6468260299930268202&#45;&gt;4352240974791338677</title>
<path fill="none" stroke="black" stroke-width="1.53" d="M368.48,-882.66C378.21,-833.15 405,-685.6 405,-561.81 405,-561.81 405,-561.81 405,-304.81 405,-270.35 369.47,-247.57 340.56,-234.74"/>
<polygon fill="black" stroke="black" stroke-width="1.53" points="341.64,-231.4 331.07,-230.76 338.94,-237.85 341.64,-231.4"/>
<text text-anchor="middle" x="408.5" y="-557.71" font-family="Times New Roman,serif" font-size="12.00">3</text>
</g>
<!-- &#45;6468260299930268202&#45;&gt;5810947811007806958 -->
<g id="edge38" class="edge">
<title>&#45;6468260299930268202&#45;&gt;5810947811007806958</title>
<path fill="none" stroke="black" d="M355.88,-882.78C340.11,-853.35 307.67,-792.79 289.02,-757.98"/>
<polygon fill="black" stroke="black" points="291.96,-756.05 284.15,-748.89 285.79,-759.36 291.96,-756.05"/>
<text text-anchor="middle" x="331.5" y="-812.71" font-family="Times New Roman,serif" font-size="12.00">1</text>
</g>
<!-- &#45;6468260299930268202&#45;&gt;&#45;7002965031765832216 -->
<g id="edge39" class="edge">
<title>&#45;6468260299930268202&#45;&gt;&#45;7002965031765832216</title>
<path fill="none" stroke="black" d="M377.64,-882.61C386.23,-870.93 397.73,-855.27 407.37,-842.17"/>
<polygon fill="black" stroke="black" points="410.28,-844.12 413.38,-833.99 404.63,-839.97 410.28,-844.12"/>
<text text-anchor="middle" x="402.5" y="-855.21" font-family="Times New Roman,serif" font-size="12.00">1</text>
</g>
<!-- @@startnode -->
<g id="node25" class="node">
<title>@@startnode</title>
<ellipse fill="none" stroke="black" cx="444" cy="-1532.63" rx="31.64" ry="31.64"/>
<text text-anchor="start" x="433" y="-1523.93" font-family="Times New Roman,serif" font-size="34.00">â—</text>
</g>
<!-- @@startnode&#45;&gt;&#45;5306809037834110387 -->
<g id="edge41" class="edge">
<title>@@startnode&#45;&gt;&#45;5306809037834110387</title>
<path fill="none" stroke="black" d="M433.2,-1502.58C428.36,-1489.57 422.69,-1474.33 417.96,-1461.6"/>
<polygon fill="black" stroke="black" points="421.16,-1460.17 414.4,-1452.02 414.6,-1462.61 421.16,-1460.17"/>
<text text-anchor="middle" x="427.5" y="-1473.21" font-family="Times New Roman,serif" font-size="12.00">3</text>
</g>
<!-- @@startnode&#45;&gt;&#45;8277026589847331252 -->
<g id="edge40" class="edge">
<title>@@startnode&#45;&gt;&#45;8277026589847331252</title>
<path fill="none" stroke="black" d="M460,-1504.92C468.23,-1491.18 478.22,-1474.51 486.39,-1460.87"/>
<polygon fill="black" stroke="black" points="489.57,-1462.36 491.71,-1451.99 483.57,-1458.77 489.57,-1462.36"/>
<text text-anchor="middle" x="482.5" y="-1473.21" font-family="Times New Roman,serif" font-size="12.00">2</text>
</g>
</g>
</svg>
